<svg width="36" height="38" viewBox="0 0 36 38" fill="none" xmlns="http://www.w3.org/2000/svg">
<path d="M29.3164 6.44982C28.1984 6.51371 27.0768 6.42399 25.9831 6.18315C24.6638 5.7314 23.4299 5.06094 22.3331 4.19982C21.3948 3.53463 20.5037 2.8051 19.6664 2.01649C19.3115 1.68491 18.8438 1.50049 18.3581 1.50049C17.8724 1.50049 17.4047 1.68491 17.0498 2.01649C16.2347 2.78017 15.3778 3.49794 14.4831 4.16648C13.3794 5.03893 12.141 5.72571 10.8164 6.19982C9.57067 6.4813 8.29093 6.58233 7.01644 6.49982C5.97286 6.4566 4.93242 6.35646 3.89977 6.19982C3.64743 6.16241 3.39014 6.1762 3.14324 6.24036C2.89634 6.30453 2.6649 6.41776 2.4627 6.57329C2.2605 6.72883 2.09169 6.92349 1.96635 7.14567C1.841 7.36785 1.76167 7.61299 1.7331 7.86649C1.64977 8.66648 1.4331 10.7498 1.3331 13.0665C1.19296 15.3811 1.3385 17.7041 1.76644 19.9832C2.97317 23.7589 5.1926 27.1313 8.1831 29.7331C10.5601 31.9753 13.1375 33.9948 15.8831 35.7665C16.6189 36.2717 17.4905 36.5421 18.3831 36.5421C19.2757 36.5421 20.1473 36.2717 20.8831 35.7665C23.4831 33.9486 25.915 31.9016 28.1498 29.6498C30.9652 27.0289 33.0502 23.7205 34.1998 20.0498" stroke="#fff" stroke-width="2.5" stroke-linecap="round" stroke-linejoin="round"/>
<path d="M16.3333 17.3333L21.0999 22.1C21.1296 22.1323 21.1656 22.1581 21.2058 22.1758C21.246 22.1935 21.2894 22.2026 21.3333 22.2026C21.3771 22.2026 21.4205 22.1935 21.4607 22.1758C21.5009 22.1581 21.5369 22.1323 21.5666 22.1L34.6666 9" stroke="#fff" stroke-width="2.5" stroke-linecap="round" stroke-linejoin="round"/>
</svg>
